<?xml version="1.0" encoding="utf-8"?>
<!-- Generator: Adobe Illustrator 19.0.0, SVG Export Plug-In . SVG Version: 6.00 Build 0)  -->
<svg version="1.1" id="图层_1" xmlns="http://www.w3.org/2000/svg" xmlns:xlink="http://www.w3.org/1999/xlink" x="0px" y="0px"
	 viewBox="0 0 84 24" style="enable-background:new 0 0 84 24;" xml:space="preserve">
<style type="text/css">
	.st0{fill:#FFFFFF;}
</style>
<g id="XMLID_48_">
	<g id="XMLID_110_">
		<path id="XMLID_47_" class="st0" d="M20.9,0.2h-5.4c-0.4,0-0.7,0.3-0.7,0.7v5.4c0,0.4,0.3,0.7,0.7,0.7h5.4c0.4,0,0.7-0.3,0.7-0.7
			V0.8C21.6,0.5,21.3,0.2,20.9,0.2z"/>
		<path id="XMLID_46_" class="st0" d="M13.5,7.5H8.2c-0.4,0-0.7,0.3-0.7,0.7v5.4c0,0.4,0.3,0.7,0.7,0.7h5.4c0.4,0,0.7-0.3,0.7-0.7
			V8.2C14.2,7.8,13.9,7.5,13.5,7.5z"/>
		<path id="XMLID_45_" class="st0" d="M20.9,7.5h-5.4c-0.4,0-0.7,0.3-0.7,0.7v5.4c0,0.4,0.3,0.7,0.7,0.7h5.4c0.4,0,0.7-0.3,0.7-0.7
			V8.2C21.6,7.8,21.3,7.5,20.9,7.5z"/>
		<path id="XMLID_44_" class="st0" d="M6.2,14.9H0.8c-0.4,0-0.7,0.3-0.7,0.7V21c0,0.4,0.3,0.7,0.7,0.7h5.4c0.4,0,0.7-0.3,0.7-0.7
			v-5.4C6.8,15.2,6.5,14.9,6.2,14.9z"/>
		<path id="XMLID_43_" class="st0" d="M13.5,14.9H8.2c-0.4,0-0.7,0.3-0.7,0.7V21c0,0.4,0.3,0.7,0.7,0.7h5.4c0.4,0,0.7-0.3,0.7-0.7
			v-5.4C14.2,15.2,13.9,14.9,13.5,14.9z"/>
		<path id="XMLID_42_" class="st0" d="M20.9,14.9h-5.4c-0.4,0-0.7,0.3-0.7,0.7V21c0,0.4,0.3,0.7,0.7,0.7h5.4c0.4,0,0.7-0.3,0.7-0.7
			v-5.4C21.6,15.2,21.3,14.9,20.9,14.9z"/>
	</g>
	<g id="XMLID_85_">
		<path id="XMLID_105_" class="st0" d="M24.6,12.6v-1.4c0.2-0.1,0.4-0.2,0.4-0.3c0.1-0.1,0.1-0.4,0.1-0.9V1.6c0-1,0.5-1.5,1.4-1.5
			h2.6c1,0,1.5,0.5,1.5,1.5v9.7c0,0.4-0.1,0.7-0.4,1c-0.3,0.3-0.6,0.4-1,0.4h-0.9v-1.4h0.4c0.3,0,0.5-0.2,0.5-0.5v-2h-2.7v1.3
			c0,0.7-0.2,1.3-0.5,1.7C25.7,12.3,25.2,12.6,24.6,12.6z M26.5,3.8h2.7V1.9c0-0.3-0.1-0.4-0.4-0.4h-1.7c-0.3,0-0.5,0.1-0.5,0.4V3.8
			z M26.5,7.4h2.7V5.1h-2.7V7.4z M31.3,12.6v-11c0-1,0.5-1.6,1.4-1.6h3.8c0.6,0,1,0.1,1.2,0.2c0.4,0.3,0.6,0.7,0.6,1.3v1
			c0,0.9-0.5,1.4-1.4,1.4h-1.5V2.7h1c0.3,0,0.5-0.1,0.5-0.4V1.8c0-0.2-0.2-0.4-0.5-0.4h-3.1c-0.3,0-0.4,0-0.5,0.1
			c-0.1,0.1-0.1,0.2-0.1,0.3v2.7h4c0.6,0,1,0.1,1.2,0.2c0.2,0.1,0.3,0.4,0.3,0.6c0,0.4-0.2,1.1-0.5,2C37.4,8,37,8.8,36.5,9.7
			c0.7,0.8,1.3,1.3,1.8,1.6v1.4c-0.6-0.2-1.1-0.5-1.6-0.9c-0.3-0.2-0.6-0.5-1-0.9c-0.9,1-1.8,1.6-2.6,1.8v-1.4
			c0.6-0.3,1.2-0.8,1.8-1.5c-0.8-1.2-1.4-2.3-1.9-3.4h1.5c0.4,0.8,0.8,1.5,1.2,2.1c0.4-0.9,0.8-1.8,1-2.7h-4v6.8H31.3z"/>
		<path id="XMLID_101_" class="st0" d="M39.8,6.2V5l1.1,0c1.5,0,2.8-0.2,3.9-0.5l-3-0.9c-0.5,0.2-1.1,0.4-1.7,0.4V2.5
			c0.9-0.2,1.5-0.5,1.8-0.9C42,1.4,42.2,0.8,42.4,0h1.5l-0.2,0.8h6.9c0.7,0,1.2,0.1,1.5,0.4c0.4,0.3,0.6,0.7,0.6,1.2
			c0,0.6-0.3,1-0.8,1.3c-0.3,0.2-1.2,0.4-2.7,0.8c1.3,0.3,2.3,0.4,3.1,0.4l1.1,0v1.3h-0.9c-1.1,0-2.2-0.1-3.4-0.4
			c-0.6-0.1-1.3-0.4-2.2-0.7c-1.7,0.5-2.9,0.8-3.5,0.9c-0.8,0.1-1.7,0.2-2.6,0.2H39.8z M39.8,12.7v-1.5c0.7-0.1,1.4-0.4,2-0.9
			c0.4-0.3,0.6-0.7,0.8-1.1C42.7,9,42.8,8.7,43,8.4h-3.1V7h3.5l0.2-0.8h1.4L44.8,7h6.9c0.4,0,0.8,0.1,1,0.3c0.3,0.2,0.5,0.6,0.5,1
			v2.9c0,0.4-0.1,0.8-0.2,1c-0.3,0.3-0.6,0.5-1,0.5h-4.8v-1.4h4.1c0.3,0,0.4-0.1,0.5-0.2c0-0.1,0.1-0.2,0.1-0.4V8.9
			c0-0.2,0-0.4-0.1-0.4c-0.1-0.1-0.3-0.1-0.5-0.1h-6.8c-0.3,0.9-0.5,1.4-0.6,1.7c-0.4,0.8-1.1,1.5-2,2
			C41.3,12.3,40.6,12.6,39.8,12.7z M43,2.5l4.1,1.3l3.4-1C50.8,2.7,51,2.6,51,2.6c0.1-0.1,0.1-0.1,0.1-0.2c0-0.1-0.2-0.2-0.6-0.2
			h-7.4L43,2.5z"/>
		<path id="XMLID_88_" class="st0" d="M55,12.6v-1.4c0.2,0,0.4-0.1,0.5-0.2c0.1-0.2,0.2-0.4,0.2-0.7V2.8c0-0.7,0.2-1.2,0.5-1.5
			c0.4-0.4,0.9-0.6,1.5-0.6l3.8,0V0h1.4v0.7h5.7v1.2h-1.9v0.5h1.8v1.1h-1.8v2.1h-1.3V3.5h-2V2.4h2V1.9h-4.6v0.5h1.9v1.1h-1.9v2.1
			h-1.3V3.5h-2V2.4h2V1.9l-1.8,0c-0.2,0-0.4,0.1-0.6,0.3C57.1,2.3,57,2.6,57,2.8v7.5c0,0.7-0.2,1.3-0.6,1.7
			C56.1,12.3,55.6,12.6,55,12.6z M57.6,5.6V4.4c0.2,0,0.3-0.1,0.3-0.1c0-0.1,0-0.2,0-0.2c0,0,0-0.1,0-0.2h1.2c0,0.5-0.1,0.8-0.2,1.1
			C58.7,5.3,58.3,5.5,57.6,5.6z M57.7,12.5v-1.1c0.7,0,1.3-0.2,1.7-0.4c0.4-0.2,0.8-0.6,1.2-1.1h-1.4c-0.4,0-0.7,0-0.9-0.1
			c-0.4-0.2-0.5-0.5-0.5-1.1V7.3c0-0.4,0.1-0.7,0.4-0.9c0.2-0.2,0.5-0.3,0.9-0.3c0,0,0.1,0,0.1,0h0.2V5.7h1.3v0.5h6.5
			c0.5,0,0.9,0.1,1.1,0.4c0.2,0.2,0.3,0.6,0.3,1v1.2c0,0.8-0.4,1.2-1.3,1.2h-5c-0.6,0.9-1.2,1.6-1.8,2
			C59.7,12.3,58.8,12.5,57.7,12.5z M59.1,7.6h3.3V7.1h-2.9c-0.3,0-0.5,0.1-0.5,0.3L59.1,7.6z M62.4,8.9V8.5h-3.3v0.1
			c0,0.2,0.2,0.3,0.5,0.3H62.4z M61.6,5.4V3.9h1.1v1.6H61.6z M62.9,10.2h1.4l0,1c0,0.1,0,0.2,0.1,0.3c0,0,0.2,0.1,0.3,0.1h4l0,1
			h-4.5c-0.5,0-0.8-0.1-1-0.3c-0.2-0.2-0.3-0.5-0.3-0.8V10.2z M63.5,5.6V4.4c0.1,0,0.2,0,0.2-0.1c0.1,0,0.1-0.2,0.1-0.5H65
			c0,0.1,0,0.2,0,0.3C65,4.9,64.5,5.4,63.5,5.6z M63.8,7.6h3.3V7.5c0-0.2-0.1-0.4-0.4-0.4h-2.9L63.8,7.6z M63.8,8.9h2.9
			c0.3,0,0.4-0.1,0.4-0.4V8.5h-3.3L63.8,8.9z M65.4,10.1h0.8c-0.1,0.2-0.1,0.3-0.1,0.4c0,0.1,0,0.1,0.1,0.1c0,0,0.2,0,0.3,0h0.6
			c0.1,0,0.2-0.1,0.2-0.2c0,0,0-0.1,0-0.1h0.8c0,0.2,0.1,0.3,0.1,0.4c0,0.4-0.3,0.6-0.8,0.6H66c-0.5,0-0.7-0.2-0.7-0.5
			C65.3,10.7,65.3,10.5,65.4,10.1z M67.1,3.8h1.2c0,0.1,0,0.2,0,0.2c0,0.2,0,0.3,0.1,0.3c0,0,0.1,0.1,0.3,0.1v1.2
			c-0.5,0-0.9-0.2-1.2-0.5c-0.2-0.2-0.3-0.4-0.3-0.7C67.2,4.3,67.2,4.1,67.1,3.8z"/>
		<path id="XMLID_86_" class="st0" d="M70.2,12.5v-1c0.2,0,0.3-0.1,0.5-0.1c0.3-0.2,0.5-0.6,0.5-1l1.1-7.9h-2V1.1h6v-1h1.4v1h6.4
			v1.4H73.6l-0.3,2.1h8.2c0.6,0,1.2,0.2,1.5,0.5c0.4,0.4,0.6,0.8,0.6,1.5v4.2c0,0.5-0.2,1-0.5,1.4c-0.4,0.4-0.9,0.5-1.5,0.5h-3.2
			v-1.4h3.1c0.3,0,0.5-0.1,0.6-0.3c0.1-0.1,0.2-0.3,0.2-0.6V6.7c0-0.6-0.3-0.8-0.9-0.8h-8.2l-0.6,4.6c-0.1,0.6-0.3,1-0.6,1.4
			C71.5,12.4,70.9,12.5,70.2,12.5z"/>
	</g>
	<path id="XMLID_21_" class="st0" d="M68.7,11.5l1.5,0c0,0,0.4,1,0,1c-0.4,0-1.5,0-1.5,0L68.7,11.5z"/>
	<path id="XMLID_20_" class="st0" d="M55,11.2c-0.4,0-1.8,0-1.8,0l-1.6,1.4c0,0,2.5,0,3.4,0C55.9,12.6,55,11.2,55,11.2z"/>
	<path id="XMLID_19_" class="st0" d="M38.3,11.3c0.8,0.2,1.6,0,1.6,0l-0.1,1.5c0,0-1,0.1-1.5-0.1C37.7,12.4,38.3,11.3,38.3,11.3z"/>
	<g id="XMLID_49_">
		<path id="XMLID_80_" class="st0" d="M25.2,16.9h-0.6V16h0.6v-0.8c0-0.3,0-0.5,0.1-0.7c0.1-0.2,0.2-0.3,0.3-0.5
			c0.1-0.1,0.3-0.2,0.5-0.3c0.2-0.1,0.4-0.1,0.5-0.1h0.5v1.1h-0.5c-0.2,0-0.3,0.1-0.3,0.4V16h0.8v0.9h-0.8v4.7h-1.1V16.9z"/>
		<path id="XMLID_78_" class="st0" d="M30.9,21.7h-1.1v-0.5h0c-0.1,0.2-0.3,0.3-0.4,0.4c-0.2,0.1-0.4,0.2-0.6,0.2
			c-0.1,0-0.3,0-0.4-0.1c-0.1,0-0.3-0.1-0.4-0.2c-0.1-0.1-0.2-0.3-0.3-0.4c-0.1-0.2-0.1-0.4-0.1-0.6V16h1.1v3.9c0,0.2,0,0.4,0.1,0.5
			c0.1,0.1,0.2,0.2,0.4,0.2c0.2,0,0.4-0.1,0.4-0.2c0.1-0.1,0.1-0.3,0.1-0.6V16h1.1V21.7z"/>
		<path id="XMLID_76_" class="st0" d="M36,21.7h-1l-0.6-3.3h0l-0.6,3.3h-1L31.4,16h1.2l0.7,3.5h0l0.6-3.5h0.9l0.6,3.5h0l0.7-3.5h1.2
			L36,21.7z"/>
		<path id="XMLID_74_" class="st0" d="M41.2,21.7H40v-0.5h0c-0.1,0.2-0.3,0.3-0.4,0.4c-0.2,0.1-0.4,0.2-0.6,0.2
			c-0.1,0-0.3,0-0.4-0.1c-0.1,0-0.3-0.1-0.4-0.2c-0.1-0.1-0.2-0.3-0.3-0.4c-0.1-0.2-0.1-0.4-0.1-0.6V16h1.1v3.9c0,0.2,0,0.4,0.1,0.5
			c0.1,0.1,0.2,0.2,0.4,0.2c0.2,0,0.4-0.1,0.4-0.2c0.1-0.1,0.1-0.3,0.1-0.6V16h1.1V21.7z"/>
		<path id="XMLID_72_" class="st0" d="M42.1,16h1.1v0.5h0c0.1-0.2,0.3-0.3,0.4-0.4c0.2-0.1,0.4-0.2,0.6-0.2c0.2,0,0.4,0.1,0.6,0.2
			c0.2,0.1,0.3,0.2,0.4,0.4c0.1-0.2,0.3-0.3,0.5-0.4C46,16,46.2,16,46.5,16c0.1,0,0.3,0,0.4,0.1c0.1,0,0.3,0.1,0.4,0.2
			c0.1,0.1,0.2,0.3,0.3,0.4c0.1,0.2,0.1,0.4,0.1,0.6v4.3h-1.1v-3.9c0-0.2,0-0.4-0.1-0.5c-0.1-0.1-0.2-0.2-0.4-0.2
			c-0.2,0-0.4,0.1-0.4,0.2c-0.1,0.1-0.1,0.3-0.1,0.6v3.8h-1.1v-3.9c0-0.2,0-0.4-0.1-0.5c-0.1-0.1-0.2-0.2-0.4-0.2
			c-0.2,0-0.4,0.1-0.4,0.2c-0.1,0.1-0.1,0.3-0.1,0.6v3.8h-1.1V16z"/>
		<path id="XMLID_69_" class="st0" d="M48.6,17.9c0-0.2,0-0.4,0-0.6c0-0.2,0.1-0.4,0.2-0.5c0.1-0.2,0.3-0.4,0.6-0.6
			c0.3-0.1,0.6-0.2,0.9-0.2c0.3,0,0.6,0.1,0.9,0.2c0.3,0.1,0.4,0.3,0.6,0.6c0.1,0.1,0.1,0.3,0.2,0.5c0,0.2,0,0.4,0,0.6v1.9
			c0,0.2,0,0.4,0,0.6c0,0.2-0.1,0.4-0.2,0.5c-0.1,0.2-0.3,0.4-0.6,0.6c-0.3,0.1-0.6,0.2-0.9,0.2c-0.3,0-0.6-0.1-0.9-0.2
			c-0.3-0.1-0.4-0.3-0.6-0.6c-0.1-0.1-0.1-0.3-0.2-0.5c0-0.2,0-0.4,0-0.6V17.9z M49.7,20c0,0.2,0,0.4,0.1,0.5
			c0.1,0.1,0.2,0.2,0.4,0.2c0.2,0,0.3-0.1,0.4-0.2c0.1-0.1,0.1-0.3,0.1-0.5v-2.2c0-0.2,0-0.4-0.1-0.5c-0.1-0.1-0.2-0.2-0.4-0.2
			c-0.2,0-0.3,0.1-0.4,0.2c-0.1,0.1-0.1,0.3-0.1,0.5V20z"/>
		<path id="XMLID_67_" class="st0" d="M52.9,16.9h-0.6V16h0.6v-0.8c0-0.3,0-0.5,0.1-0.7c0.1-0.2,0.2-0.3,0.3-0.5
			c0.1-0.1,0.3-0.2,0.5-0.3c0.2-0.1,0.4-0.1,0.5-0.1h0.5v1.1h-0.5c-0.2,0-0.3,0.1-0.3,0.4V16h0.8v0.9h-0.8v4.7h-1.1V16.9z"/>
		<path id="XMLID_64_" class="st0" d="M57.4,21.1L57.4,21.1c-0.2,0.2-0.3,0.4-0.5,0.5c-0.2,0.1-0.4,0.2-0.6,0.2
			c-0.1,0-0.3,0-0.4-0.1c-0.1,0-0.3-0.1-0.4-0.2c-0.1-0.1-0.2-0.3-0.3-0.5c-0.1-0.2-0.1-0.4-0.1-0.8c0-0.3,0-0.6,0.1-0.8
			c0.1-0.2,0.1-0.4,0.3-0.6c0.1-0.2,0.3-0.3,0.5-0.4c0.2-0.1,0.5-0.1,0.9-0.1c0.1,0,0.2,0,0.2,0c0.1,0,0.2,0,0.3,0v-0.6
			c0-0.2,0-0.4-0.1-0.5c-0.1-0.1-0.2-0.2-0.4-0.2c-0.1,0-0.3,0-0.4,0.1c-0.1,0.1-0.2,0.2-0.2,0.4h-1.1c0-0.5,0.2-0.9,0.5-1.2
			c0.1-0.1,0.3-0.3,0.5-0.3c0.2-0.1,0.4-0.1,0.7-0.1c0.2,0,0.5,0,0.7,0.1c0.2,0.1,0.4,0.2,0.5,0.3c0.2,0.1,0.3,0.3,0.4,0.6
			c0.1,0.2,0.1,0.5,0.1,0.8v3.9h-1.1V21.1z M57.4,19.2c-0.1,0-0.2,0-0.3,0c-0.2,0-0.5,0.1-0.6,0.2c-0.2,0.1-0.3,0.3-0.3,0.6
			c0,0.2,0.1,0.4,0.2,0.5c0.1,0.1,0.2,0.2,0.4,0.2c0.2,0,0.3-0.1,0.4-0.2c0.1-0.1,0.2-0.3,0.2-0.5V19.2z"/>
		<path id="XMLID_62_" class="st0" d="M59.3,16h1.1v0.5h0c0.1-0.2,0.3-0.3,0.4-0.4c0.2-0.1,0.4-0.2,0.6-0.2c0.1,0,0.3,0,0.4,0.1
			c0.1,0,0.3,0.1,0.4,0.2c0.1,0.1,0.2,0.3,0.3,0.4c0.1,0.2,0.1,0.4,0.1,0.6v4.3h-1.1v-3.9c0-0.2,0-0.4-0.1-0.5
			c-0.1-0.1-0.2-0.2-0.4-0.2c-0.2,0-0.4,0.1-0.4,0.2c-0.1,0.1-0.1,0.3-0.1,0.6v3.8h-1.1V16z"/>
		<path id="XMLID_59_" class="st0" d="M64.8,22.3c0,0.1,0.1,0.3,0.2,0.4c0.1,0.1,0.2,0.2,0.4,0.2c0.2,0,0.3-0.1,0.4-0.2
			c0.1-0.1,0.1-0.3,0.1-0.4v-1.1h0c-0.1,0.2-0.3,0.3-0.4,0.4c-0.2,0.1-0.4,0.1-0.6,0.1c-0.5,0-0.8-0.2-1-0.5
			c-0.1-0.1-0.1-0.3-0.1-0.5c0-0.2,0-0.4,0-0.7v-2.1c0-0.4,0-0.7,0-0.9c0-0.2,0.1-0.3,0.1-0.5c0.1-0.1,0.2-0.3,0.4-0.4
			c0.2-0.1,0.4-0.1,0.6-0.1c0.1,0,0.3,0,0.4,0c0.1,0,0.2,0.1,0.3,0.1c0.1,0.1,0.2,0.1,0.2,0.2c0.1,0.1,0.1,0.1,0.2,0.2V16H67v6.3
			c0,0.2,0,0.4-0.1,0.6c-0.1,0.2-0.2,0.4-0.3,0.5c-0.1,0.2-0.3,0.3-0.5,0.4C65.9,24,65.6,24,65.3,24c-0.2,0-0.3,0-0.5-0.1
			c-0.2-0.1-0.4-0.1-0.5-0.3c-0.2-0.1-0.3-0.3-0.4-0.5c-0.1-0.2-0.2-0.5-0.2-0.8H64.8z M64.8,19.9c0,0.2,0,0.3,0.1,0.5
			c0.1,0.1,0.2,0.2,0.4,0.2c0.2,0,0.3-0.1,0.4-0.2c0.1-0.1,0.2-0.3,0.2-0.4v-2.2c0-0.2-0.1-0.4-0.2-0.5c-0.1-0.1-0.2-0.2-0.4-0.2
			c-0.2,0-0.3,0.1-0.4,0.2c-0.1,0.1-0.1,0.3-0.1,0.6V19.9z"/>
		<path id="XMLID_57_" class="st0" d="M68,20.5h1.1v1.1H68V20.5z"/>
		<path id="XMLID_55_" class="st0" d="M71.2,20c0,0.2,0,0.3,0.1,0.4c0.1,0.1,0.2,0.1,0.4,0.1c0.2,0,0.4-0.1,0.4-0.2
			c0.1-0.1,0.1-0.3,0.1-0.4h1.1c0,0.2,0,0.5-0.1,0.7c-0.1,0.2-0.2,0.4-0.3,0.5c-0.1,0.2-0.3,0.3-0.5,0.4c-0.2,0.1-0.4,0.1-0.7,0.1
			c-0.3,0-0.6-0.1-0.9-0.2c-0.3-0.1-0.4-0.3-0.6-0.6c-0.1-0.1-0.1-0.3-0.2-0.5c0-0.2,0-0.4,0-0.6v-1.9c0-0.2,0-0.4,0-0.6
			c0-0.2,0.1-0.4,0.2-0.5c0.1-0.2,0.3-0.4,0.6-0.6c0.3-0.1,0.6-0.2,0.9-0.2c0.3,0,0.5,0,0.7,0.1c0.2,0.1,0.4,0.2,0.5,0.4
			c0.1,0.2,0.3,0.3,0.3,0.6c0.1,0.2,0.1,0.5,0.1,0.7h-1.1c0-0.2,0-0.4-0.1-0.5c-0.1-0.1-0.2-0.2-0.4-0.2c-0.2,0-0.3,0.1-0.4,0.2
			c-0.1,0.1-0.1,0.3-0.1,0.5V20z"/>
		<path id="XMLID_52_" class="st0" d="M74,17.9c0-0.2,0-0.4,0-0.6c0-0.2,0.1-0.4,0.2-0.5c0.1-0.2,0.3-0.4,0.6-0.6
			c0.3-0.1,0.6-0.2,0.9-0.2c0.3,0,0.6,0.1,0.9,0.2c0.3,0.1,0.4,0.3,0.6,0.6c0.1,0.1,0.1,0.3,0.2,0.5c0,0.2,0,0.4,0,0.6v1.9
			c0,0.2,0,0.4,0,0.6c0,0.2-0.1,0.4-0.2,0.5c-0.1,0.2-0.3,0.4-0.6,0.6c-0.3,0.1-0.6,0.2-0.9,0.2c-0.3,0-0.6-0.1-0.9-0.2
			c-0.3-0.1-0.4-0.3-0.6-0.6c-0.1-0.1-0.1-0.3-0.2-0.5c0-0.2,0-0.4,0-0.6V17.9z M75.2,20c0,0.2,0,0.4,0.1,0.5
			c0.1,0.1,0.2,0.2,0.4,0.2c0.2,0,0.3-0.1,0.4-0.2c0.1-0.1,0.1-0.3,0.1-0.5v-2.2c0-0.2,0-0.4-0.1-0.5c-0.1-0.1-0.2-0.2-0.4-0.2
			c-0.2,0-0.3,0.1-0.4,0.2c-0.1,0.1-0.1,0.3-0.1,0.5V20z"/>
		<path id="XMLID_50_" class="st0" d="M78.2,16h1.1v0.5h0c0.1-0.2,0.3-0.3,0.4-0.4C80,16,80.2,16,80.5,16c0.2,0,0.4,0.1,0.6,0.2
			c0.2,0.1,0.3,0.2,0.4,0.4c0.1-0.2,0.3-0.3,0.5-0.4c0.2-0.1,0.4-0.2,0.7-0.2c0.1,0,0.3,0,0.4,0.1c0.1,0,0.3,0.1,0.4,0.2
			c0.1,0.1,0.2,0.3,0.3,0.4c0.1,0.2,0.1,0.4,0.1,0.6v4.3h-1.1v-3.9c0-0.2,0-0.4-0.1-0.5c-0.1-0.1-0.2-0.2-0.4-0.2
			c-0.2,0-0.4,0.1-0.4,0.2c-0.1,0.1-0.1,0.3-0.1,0.6v3.8h-1.1v-3.9c0-0.2,0-0.4-0.1-0.5c-0.1-0.1-0.2-0.2-0.4-0.2
			c-0.2,0-0.4,0.1-0.4,0.2c-0.1,0.1-0.1,0.3-0.1,0.6v3.8h-1.1V16z"/>
	</g>
</g>
</svg>
