<?xml version="1.0" encoding="utf-8"?>
<!-- Generator: Adobe Illustrator 19.0.0, SVG Export Plug-In . SVG Version: 6.00 Build 0)  -->
<svg version="1.1" id="图层_1" xmlns="http://www.w3.org/2000/svg" xmlns:xlink="http://www.w3.org/1999/xlink" x="0px" y="0px"
	 viewBox="0 0 22 22" style="enable-background:new 0 0 22 22;" xml:space="preserve">
<style type="text/css">
	.st0{fill:#FFFFFF;}
</style>
<g id="XMLID_110_">
	<path id="XMLID_47_" class="st0" d="M21.3,0h-5.5c-0.4,0-0.7,0.3-0.7,0.7v5.5c0,0.4,0.3,0.7,0.7,0.7h5.5c0.4,0,0.7-0.3,0.7-0.7V0.7
		C22,0.3,21.7,0,21.3,0z"/>
	<path id="XMLID_46_" class="st0" d="M13.8,7.6H8.3c-0.4,0-0.7,0.3-0.7,0.7v5.5c0,0.4,0.3,0.7,0.7,0.7h5.5c0.4,0,0.7-0.3,0.7-0.7
		V8.3C14.4,7.9,14.1,7.6,13.8,7.6z"/>
	<path id="XMLID_45_" class="st0" d="M21.3,7.6h-5.5c-0.4,0-0.7,0.3-0.7,0.7v5.5c0,0.4,0.3,0.7,0.7,0.7h5.5c0.4,0,0.7-0.3,0.7-0.7
		V8.3C22,7.9,21.7,7.6,21.3,7.6z"/>
	<path id="XMLID_44_" class="st0" d="M6.2,15.1H0.7c-0.4,0-0.7,0.3-0.7,0.7v5.5C0,21.7,0.3,22,0.7,22h5.5c0.4,0,0.7-0.3,0.7-0.7
		v-5.5C6.9,15.4,6.6,15.1,6.2,15.1z"/>
	<path id="XMLID_43_" class="st0" d="M13.8,15.1H8.3c-0.4,0-0.7,0.3-0.7,0.7v5.5c0,0.4,0.3,0.7,0.7,0.7h5.5c0.4,0,0.7-0.3,0.7-0.7
		v-5.5C14.4,15.4,14.1,15.1,13.8,15.1z"/>
	<path id="XMLID_42_" class="st0" d="M21.3,15.1h-5.5c-0.4,0-0.7,0.3-0.7,0.7v5.5c0,0.4,0.3,0.7,0.7,0.7h5.5c0.4,0,0.7-0.3,0.7-0.7
		v-5.5C22,15.4,21.7,15.1,21.3,15.1z"/>
</g>
</svg>
